<?xml version="1.0" encoding="UTF-8" standalone="no"?>
<!-- Created with Inkscape (http://www.inkscape.org/) -->

<svg
   xmlns:dc="http://purl.org/dc/elements/1.1/"
   xmlns:cc="http://creativecommons.org/ns#"
   xmlns:rdf="http://www.w3.org/1999/02/22-rdf-syntax-ns#"
   xmlns:svg="http://www.w3.org/2000/svg"
   xmlns="http://www.w3.org/2000/svg"
   xmlns:xlink="http://www.w3.org/1999/xlink"
   xmlns:sodipodi="http://sodipodi.sourceforge.net/DTD/sodipodi-0.dtd"
   xmlns:inkscape="http://www.inkscape.org/namespaces/inkscape"
   version="1.0"
   width="1920"
   height="1080"
   id="svg2424"
   sodipodi:docname="GrumpyArch.svg"
   inkscape:version="0.92.2 2405546, 2018-03-11"
   enable-background="new">
  <metadata
     id="metadata176">
    <rdf:RDF>
      <cc:Work
         rdf:about="">
        <dc:format>image/svg+xml</dc:format>
        <dc:type
           rdf:resource="http://purl.org/dc/dcmitype/StillImage" />
        <dc:title />
      </cc:Work>
    </rdf:RDF>
  </metadata>
  <sodipodi:namedview
     pagecolor="#ffffff"
     bordercolor="#666666"
     borderopacity="1"
     objecttolerance="10"
     gridtolerance="10"
     guidetolerance="10"
     inkscape:pageopacity="0"
     inkscape:pageshadow="2"
     inkscape:window-width="1796"
     inkscape:window-height="1170"
     id="namedview174"
     showgrid="false"
     inkscape:pagecheckerboard="true"
     inkscape:measure-start="1240,480"
     inkscape:measure-end="1920,480"
     inkscape:zoom="1.3915152"
     inkscape:cx="858.25399"
     inkscape:cy="506.07499"
     inkscape:window-x="0"
     inkscape:window-y="26"
     inkscape:window-maximized="1"
     inkscape:current-layer="layer8">
    <inkscape:grid
       type="xygrid"
       id="grid186" />
  </sodipodi:namedview>
  <defs
     id="defs2426">
    <linearGradient
       x1="112.49854"
       y1="6.1372099"
       x2="112.49853"
       y2="129.3468"
       id="path1082_2_"
       gradientUnits="userSpaceOnUse"
       gradientTransform="translate(287,-83)">
      <stop
         id="stop193"
         style="stop-color:#ffffff;stop-opacity:0"
         offset="0" />
      <stop
         id="stop195"
         style="stop-color:#ffffff;stop-opacity:0.27450982"
         offset="1" />
      <midPointStop
         offset="0"
         style="stop-color:#FFFFFF"
         id="midPointStop197" />
      <midPointStop
         offset="0.5"
         style="stop-color:#FFFFFF"
         id="midPointStop199" />
      <midPointStop
         offset="1"
         style="stop-color:#000000"
         id="midPointStop201" />
    </linearGradient>
    <linearGradient
       x1="541.33502"
       y1="104.50665"
       x2="606.91248"
       y2="303.14029"
       id="linearGradient2544"
       xlink:href="#path1082_2_"
       gradientUnits="userSpaceOnUse"
       gradientTransform="matrix(-0.3937741,0,0,0.393752,357.51969,122.00151)" />
    <linearGradient
       id="linearGradient3388">
      <stop
         id="stop3390"
         style="stop-color:#000000;stop-opacity:0"
         offset="0" />
      <stop
         id="stop3392"
         style="stop-color:#000000;stop-opacity:0.37113401"
         offset="1" />
    </linearGradient>
    <linearGradient
       x1="490.72305"
       y1="237.72447"
       x2="490.72305"
       y2="183.9644"
       id="linearGradient4416"
       xlink:href="#linearGradient3388"
       gradientUnits="userSpaceOnUse"
       gradientTransform="matrix(0.749107,0,0,0.749107,-35.459862,91.44108)" />
    <filter
       style="color-interpolation-filters:sRGB;"
       inkscape:label="Greyscale"
       id="filter1014">
      <feColorMatrix
         values="0.21 0.229508 0.072 0 0 0.21 0.229508 0.072 0 0 0.21 0.229508 0.072 0 0 0 0 0 1 0 "
         id="feColorMatrix1012" />
    </filter>
  </defs>
  <g
     inkscape:groupmode="layer"
     id="layer2"
     inkscape:label="Background"
     style="display:inline">
    <rect
       style="opacity:1;fill:#282c34;fill-opacity:1;stroke:#000000;stroke-width:2;stroke-linejoin:miter;stroke-miterlimit:4;stroke-dasharray:none;stroke-opacity:1;paint-order:normal"
       id="rect1100"
       width="1920"
       height="1080"
       x="1.3310099"
       y="0.98551464" />
  </g>
  <g
     inkscape:groupmode="layer"
     id="layer11"
     inkscape:label="Stripes"
     style="display:inline" />
  <g
     inkscape:label="Background copy"
     id="g1541"
     inkscape:groupmode="layer"
     style="display:inline">
    <path
       style="fill:#000000;fill-opacity:1;stroke-width:1.12535942"
       d="m 885.4898,779.1704 c 0,-3.3054 12.90173,-16.88787 21.9445,-23.10232 3.71369,-2.55217 15.86758,-8.74006 27.00863,-13.75089 22.7813,-10.24614 23.07477,-10.55441 18.11135,-19.02384 -5.23652,-8.93542 -9.82667,-11.69781 -40.2029,-24.19445 -7.65597,-3.14962 -15.31487,-6.86144 -17.01975,-8.24848 l -3.09982,-2.52186 2.88225,-4.78278 c 1.58525,-2.63052 3.49405,-4.78277 4.2418,-4.78277 0.74775,0 3.61522,2.32755 6.37219,5.17236 5.23123,5.39788 12.30933,9.45131 26.1404,14.96991 4.5107,1.79976 11.61171,4.85763 15.78005,6.79527 7.15526,3.32611 7.76236,3.428 10.86523,1.82345 9.96846,-5.1549 35.86252,-28.54869 39.61999,-35.79449 2.60778,-5.02862 3.81928,-5.26086 5.87088,-1.12536 3.4459,6.94622 -0.9311,13.81613 -14.32157,22.47816 -4.27909,2.76803 -10.4314,7.68407 -13.67185,10.92454 -9.42896,9.42896 -14.42556,21.77272 -10.22462,25.25918 0.83685,0.69454 8.30642,2.28769 16.599,3.54034 17.46968,2.6389 22.92264,4.26206 30.36774,9.03956 6.2034,3.98075 19.224,17.3727 21.8748,22.49882 3.9691,7.67541 1.1806,6.80231 -12.1552,-3.80589 -7.2889,-5.79802 -16.0483,-11.91083 -19.4654,-13.58402 -11.82844,-5.7918 -33.85034,-5.85173 -51.92697,-0.14134 -11.28816,3.56594 -32.60903,14.31274 -49.82926,25.11648 -12.19379,7.65024 -15.76147,9.28914 -15.76147,7.24042 z m 172.3009,-75.36815 c -11.0617,-6.53548 -25.4042,-23.24583 -38.3562,-44.68854 -3.1789,-5.26285 -6.5936,-10.02419 -7.5882,-10.58077 -1.1551,-0.6464 -3.1246,-0.46197 -5.4521,0.51052 -4.7244,1.97399 -5.3084,1.25376 -8.82739,-10.88717 -1.51001,-5.20948 -5.3161,-15.36272 -8.45805,-22.56277 -3.14203,-7.20005 -5.71266,-14.32621 -5.71266,-15.8359 0,-1.5097 0.83314,-5.19003 1.85136,-8.17852 1.58928,-4.66417 1.65985,-6.48535 0.49839,-12.86076 -3.20862,-17.61255 -9.92449,-33.24067 -19.54817,-45.48934 -2.15165,-2.7385 -2.49542,-4.55419 -2.49542,-13.18 0,-7.56847 0.42809,-10.43273 1.75834,-11.76506 4.7271,-4.73462 16.41408,10.94095 22.50637,30.18751 1.9913,6.29084 4.68929,12.6188 5.99558,14.06213 2.51931,2.78348 17.18585,10.31741 20.08535,10.31741 1.1997,0 3.1188,-4.2094 6.3527,-13.93437 7.3073,-21.97432 6.7634,-25.57734 -8.4703,-56.10319 -7.285,-14.59808 -8.292,-17.74048 -5.6847,-17.74048 4.5527,0 22.2907,15.01821 30.4863,25.81168 6.26,8.24445 9.8134,14.19964 20.394,34.17778 5.5486,10.47671 10.2748,17.92914 12.7471,20.09982 3.832,3.3646 4.1536,3.43688 13.0247,2.92777 5.0025,-0.2871 17.573,-2.2249 27.9341,-4.3062 13.5284,-2.71753 19.1824,-3.44048 20.0582,-2.56474 0.8757,0.87574 -0.052,4.89694 -3.2913,14.26576 l -4.5105,13.04625 7.9704,4.83295 c 4.3837,2.65812 8.4932,5.66171 9.1322,6.67466 0.8812,1.39698 0.03,4.58295 -3.5267,13.19296 -7.4658,18.07553 -7.3494,21.50512 1.0548,31.0769 4.2143,4.79985 3.965,5.23316 -7.4305,12.92082 -20.7892,14.02464 -42.6075,21.17134 -70.7257,23.16672 -6.5513,0.4649 -10.1139,1.20045 -10.4839,2.16454 -0.3081,0.80317 3.7659,8.6714 9.0536,17.48493 8.6493,14.41669 10.1552,17.9768 7.6043,17.9768 -0.4418,0 -4.0175,-1.89905 -7.946,-4.2201 z m 20.0708,-81.86583 c 17.4441,-5.43405 24.884,-20.98326 23.9027,-49.95584 l -0.2053,-6.06275 -8.7217,0.67905 c -9.4674,0.73713 -27.6164,2.95761 -28.0962,3.43748 -0.1635,0.16347 0.1256,4.56443 0.6423,9.7799 1.1729,11.83706 0.6006,20.2193 -1.5258,22.34568 -1.7212,1.72118 -1.5956,1.94444 -12.2255,-21.72482 -2.8586,-6.36527 -3.0982,-6.58526 -6.4424,-5.91642 -3.8885,0.77771 -25.5381,11.31652 -27.8034,13.53453 -1.1912,1.16618 -0.611,3.08198 3.1625,10.44152 5.4688,10.66633 11.9258,18.84143 18.3791,23.26934 4.6627,3.19945 4.7117,3.20636 18.7421,2.64403 8.5281,-0.34179 16.4783,-1.315 20.1916,-2.4717 z m -232.85575,76.27862 c 0.0159,-0.48598 1.01571,-5.1881 2.22183,-10.44916 2.90774,-12.68356 2.93706,-12.43971 -1.4067,-11.69904 -6.34276,1.08154 -19.07043,5.03425 -28.71873,8.9189 l -9.30629,3.74693 -7.01143,-7.14432 c -8.05034,-8.20294 -9.89976,-8.91997 -34.79161,-13.48877 -16.9551,-3.11205 -25.38031,-5.79417 -27.17652,-8.65151 -0.90729,-1.44326 -0.46805,-2.94275 1.91825,-6.54872 1.70225,-2.57225 2.93197,-5.52334 2.73272,-6.55796 -0.19925,-1.03463 -2.63509,-2.96933 -5.41297,-4.29934 -4.09213,-1.95926 -7.10157,-5.16493 -15.85675,-16.89075 -14.4498,-19.35262 -14.58199,-19.58428 -15.10787,-26.47587 -0.25192,-3.30133 -2.01188,-10.48443 -3.91103,-15.96245 -1.89915,-5.47801 -3.165,-10.86746 -2.81298,-11.97657 0.78652,-2.47811 4.53951,-4.00794 14.0695,-5.73515 7.80961,-1.41541 13.26362,-4.08291 15.35693,-7.51093 0.70947,-1.16182 2.89112,-5.9586 4.8481,-10.65949 1.957,-4.70091 4.35294,-8.85208 5.32434,-9.22484 0.97139,-0.37274 4.23367,-0.35041 7.24951,0.0496 l 5.48334,0.72738 0.082,-9.42919 c 0.0925,-10.63336 0.85527,-22.23177 1.60071,-24.34021 0.80664,-2.28154 1.99747,-1.73337 10.78119,4.96287 15.42396,11.75843 50.03111,33.01803 53.7479,33.01803 0.79594,0 1.30972,-1.92615 1.30972,-4.91011 0,-4.40872 0.54587,-5.41853 5.34545,-9.88864 2.94001,-2.73819 6.97994,-5.64946 8.97762,-6.46954 3.23574,-1.3283 4.05452,-1.24182 7.50209,0.79229 2.12846,1.25581 4.16547,1.98776 4.52669,1.62654 0.36123,-0.36122 0.65678,-3.84623 0.65678,-7.74445 0,-7.95417 1.26113,-9.41759 8.11581,-9.41759 5.17256,0 6.87799,-1.33061 26.91348,-20.99859 9.67244,-9.49499 18.0934,-17.26363 18.71325,-17.26363 1.58415,0 3.34012,4.80324 5.3483,14.62968 2.17783,10.65667 6.56981,23.98818 11.38032,34.54414 l 3.73596,8.19806 -2.34302,7.6069 c -2.68726,8.72451 -8.54401,21.5102 -12.57235,27.4463 -1.51674,2.23502 -4.16792,6.47004 -5.89152,9.41116 l -3.13384,5.34748 4.68883,3.8948 c 2.57886,2.14214 4.68883,4.47372 4.68883,5.18128 0,0.70756 -2.8359,5.97376 -6.30202,11.70265 -6.94186,11.47372 -7.1582,12.6457 -4.90849,26.59144 2.97138,18.4195 -1.24147,30.31886 -16.5791,46.82833 -11.52107,12.40133 -34.16911,31.35121 -34.07627,28.51203 z M 821.21455,626.939 c 14.48869,-2.35094 22.9625,-9.2915 26.5935,-21.7817 2.66533,-9.1684 2.48474,-13.71952 -0.67895,-17.11127 -3.08607,-3.30854 -10.66301,-7.38313 -20.8822,-11.22961 l -6.9934,-2.63231 -4.59938,13.74589 c -5.39257,16.11643 -6.30598,17.89585 -7.92253,15.43392 -0.6096,-0.92842 -1.89187,-4.4733 -2.84946,-7.87751 -5.13435,-18.25249 -6.11854,-19.49288 -15.89458,-20.03213 -12.31196,-0.67914 -33.03944,5.23448 -33.03944,9.42628 0,2.22601 9.62712,18.43971 16.99846,28.62827 3.04815,4.2131 7.19859,8.39617 9.75786,9.83455 7.71827,4.33789 25.15551,5.92478 39.51012,3.59562 z M 650.99303,535.7017 c -0.38684,-1.93422 -0.70431,-15.48073 -0.70549,-30.10337 l -0.003,-26.58662 -8.525,-14.067 C 630.66753,446.64156 624.37457,434.11959 619.98601,421.61838 615.8227,409.75885 606.98016,391.874 597.95786,377.0644 c -14.22019,-23.34163 -18.4389,-35.60326 -20.67945,-60.10444 -2.18282,-23.87 -2.19657,-23.68767 2.12272,-28.14405 2.09409,-2.16057 5.74374,-5.27015 8.11032,-6.91019 4.1299,-2.86202 4.72035,-2.95309 14.69044,-2.26557 36.62672,2.52575 105.5831,29.81746 166.01543,65.70598 25.90899,15.38638 31.80988,17.15416 64.9426,19.45546 10.52211,0.73085 19.27831,1.46933 19.45822,1.64105 0.36771,0.35098 -36.64278,35.88551 -37.83692,36.32803 -0.42063,0.15586 -3.29404,-2.72096 -6.38539,-6.39295 -3.09134,-3.672 -6.31988,-6.97414 -7.17454,-7.33808 -1.68406,-0.71713 -1.72123,-1.12819 1.56086,17.25939 1.91715,10.74069 1.08917,16.07878 -3.28222,21.16084 -2.62034,3.04634 -2.74333,3.06794 -21.36355,3.75211 -16.18593,0.59471 -19.0949,0.98321 -21.43081,2.86209 -1.48652,1.1957 -4.53927,3.64456 -6.78386,5.44193 l -4.0811,3.26796 -3.27853,-2.42394 c -1.8032,-1.33316 -3.89472,-2.42393 -4.64783,-2.42393 -0.75312,0 -4.60854,3.28738 -8.56761,7.30528 -5.54858,5.63104 -9.69421,8.53257 -18.08872,12.6603 -12.4239,6.10905 -13.69429,7.77154 -16.60464,21.72972 -1.55277,7.44706 -1.52869,9.55924 0.27084,23.77248 l 1.97503,15.59924 -2.76726,2.75266 c -3.17805,3.1613 -35.7408,17.46266 -39.76072,17.46266 -2.09621,0 -2.82773,-0.76136 -3.3788,-3.51673 z m 63.21981,-110.00735 c 9.71597,-3.63824 26.60477,-9.49659 37.53067,-13.01859 10.92589,-3.52199 20.69722,-7.01196 21.71406,-7.7555 1.65839,-1.21264 1.36547,-2.04501 -2.84402,-8.08189 -6.48091,-9.29437 -19.18512,-24.31486 -28.60111,-33.81577 -8.65092,-8.72897 -17.39931,-13.99473 -51.84701,-31.20738 -38.91606,-19.44538 -51.00777,-23.98807 -69.47593,-26.10117 -7.85372,-0.89861 -9.78811,0.295 -9.78565,6.03824 0.003,5.8499 3.26882,11.62603 7.87577,13.92746 3.14673,1.57196 6.89945,1.96797 18.66221,1.96938 8.09789,8.4e-4 15.00427,0.28255 15.34748,0.62578 0.34322,0.34322 -0.68181,4.95435 -2.27783,10.24694 l -2.90185,9.62293 9.14623,8.60282 c 5.03042,4.73154 9.43754,9.86884 9.79356,11.41622 0.35604,1.54736 0.21175,5.46448 -0.32064,8.70469 -0.53239,3.24022 -0.75709,6.10219 -0.49932,6.35995 0.25774,0.25776 3.08918,-0.45422 6.29207,-1.58216 7.63554,-2.68894 8.78236,-1.73968 7.97942,6.60487 -0.33652,3.49723 -0.81318,6.9916 -1.05925,7.76529 -0.81906,2.57527 0.68104,1.47224 9.76197,-7.17807 11.02604,-10.50319 12.23634,-10.18479 10.07943,2.65164 -0.80458,4.78841 -2.4584,11.92927 -3.67514,15.86861 -1.21673,3.93931 -1.9172,7.45744 -1.55662,7.81803 0.36059,0.36059 2.43889,-0.19475 4.61843,-1.23411 4.07046,-1.94107 7.26252,-2.45086 7.26252,-1.15985 0,0.40142 -2.30538,4.95913 -5.12305,10.12823 -2.81767,5.16909 -4.81677,9.39836 -4.44243,9.39836 0.37436,0 8.63007,-2.97674 18.34603,-6.61495 z m 474.63266,62.81921 c -14.279,-13.89557 -18.0767,-19.24851 -16.9216,-23.85089 1.0291,-4.10054 -1.0337,-7.94227 -8.7159,-16.23221 -10.7915,-11.64505 -10.3027,-10.56167 -10.9684,-24.31078 l -0.6023,-12.44073 -15.7551,-11.54867 -15.7549,-11.54867 -20.8192,0.0216 c -22.1555,0.023 -29.639,-0.68643 -60.7695,-5.76178 -10.8315,-1.76593 -24.5045,-3.81846 -30.3846,-4.5612 -5.88,-0.74275 -11.32399,-1.86558 -12.09757,-2.49521 -2.06045,-1.67671 -1.71567,-6.25196 0.56263,-7.46733 1.08319,-0.57781 12.79404,-2.64097 26.02404,-4.58479 13.2302,-1.94382 25.6686,-4.20852 27.6411,-5.03266 1.9724,-0.82415 6.074,-4.47594 9.1144,-8.1151 12.0502,-14.42281 25.9539,-29.27488 53.9647,-57.64565 44.2617,-44.83035 57.5205,-55.65896 84.4137,-68.94125 18.5886,-9.18072 28.0918,-11.66406 38.2866,-10.0048 13.148,2.13987 23.1427,9.30787 26.3383,18.88936 2.0919,6.27169 2.8482,31.12749 1.2747,41.88864 -1.5107,10.33194 -19.927,76.48268 -27.0969,97.33101 -5.2931,15.39118 -10.1458,25.88123 -11.794,25.49537 -1.5226,-0.35642 -0.8469,-9.38279 1.8243,-24.37001 1.2134,-6.80842 3.2,-19.97512 4.4148,-29.25934 1.8257,-13.95313 3.2282,-19.80764 8.0876,-33.76078 l 5.879,-16.88039 0.025,-21.57505 c 0.023,-20.14835 -0.1303,-21.78551 -2.3289,-24.7579 -4.3747,-5.91454 -9.1022,-8.24895 -16.662,-8.22748 -11.8572,0.0337 -27.2559,2.10177 -33.755,4.53343 -14.4839,5.41913 -31.1918,21.43381 -61.2968,58.75332 -11.1073,13.76897 -24.6121,30.09858 -30.0109,36.28805 -10.6918,12.25775 -18.5355,23.44897 -18.5355,26.44601 0,1.046 1.065,2.86653 2.3666,4.04562 2.5772,2.33453 11.7025,2.72413 31.3942,1.34034 6.3624,-0.4471 12.2034,-0.13536 17.4431,0.93094 10.1701,2.06971 28.1983,10.92033 39.8667,19.57193 10.4257,7.73022 10.2988,6.22135 1.5961,18.975 -2.6887,3.94038 -4.8743,7.99168 -4.8567,9.00287 0.018,1.01118 2.7386,3.47596 6.0469,5.47728 8.5016,5.1429 17.5537,13.55485 17.5537,16.31228 0,2.11281 0.4338,2.23007 5.3455,1.44506 11.5934,-1.8529 10.9971,-2.25653 10.7837,7.30057 -0.1036,4.64211 -1.24,12.23829 -2.5253,16.88039 -6.0675,21.91469 -6.1616,22.46604 -5.0171,29.38682 0.6025,3.64358 0.9308,6.62468 0.7292,6.62468 -0.2014,0 -6.6404,-6.1056 -14.3087,-13.56801 z"
       id="path1672"
       inkscape:connector-curvature="0" />
    <path
       style="opacity:1;fill:#0066ff;fill-opacity:1;stroke:none;stroke-width:1.74676669;stroke-linejoin:miter;stroke-miterlimit:4;stroke-dasharray:none;stroke-dashoffset:0;stroke-opacity:1;paint-order:normal"
       d="m 794.97303,626.9767 c -11.33163,-1.7843 -15.60039,-4.32223 -22.62509,-13.45136 -5.92361,-7.69817 -17.01938,-26.54593 -16.74449,-28.44292 0.69,-4.76167 23.56278,-10.76641 35.01229,-9.19171 6.30656,0.86738 7.8876,3.02109 12.10232,16.48596 1.94497,6.21363 3.9171,11.53286 4.38252,11.82051 1.48959,0.92061 3.02417,-2.26023 7.45269,-15.44767 2.38125,-7.09105 4.58448,-13.18153 4.89606,-13.53441 0.31157,-0.35289 3.79417,0.65961 7.73911,2.24999 20.28592,8.17817 23.8016,11.97689 21.4813,23.21075 -2.87465,13.91767 -9.80764,21.4707 -22.98598,25.04172 -5.9717,1.61818 -23.79081,2.34877 -30.71073,1.25914 z"
       id="path1678"
       inkscape:connector-curvature="0" />
    <path
       style="opacity:1;fill:#0066ff;fill-opacity:1;stroke:none;stroke-width:1.74676669;stroke-linejoin:miter;stroke-miterlimit:4;stroke-dasharray:none;stroke-dashoffset:0;stroke-opacity:1;paint-order:normal"
       d="m 1041.6607,623.29095 c -8.5812,-3.91868 -26.093,-29.27323 -23.9948,-34.74094 0.2815,-0.73354 5.4943,-3.75566 11.5842,-6.71583 13.8161,-6.71582 16.963,-7.85194 18.705,-6.75312 0.7262,0.45809 3.8658,6.36555 6.9768,13.12767 7.3852,16.05301 8.0042,16.79192 10.0354,11.97794 1.0722,-2.5408 1.1329,-6.38167 0.4243,-26.82534 l -0.1154,-3.32718 10.8133,-1.34499 c 5.9474,-0.73976 14.0886,-1.61554 18.0916,-1.94621 l 7.2781,-0.60122 -0.029,10.26415 c -0.067,23.42274 -5.8881,36.93299 -18.5678,43.08899 -6.1462,2.98393 -12.2658,4.02741 -27.1519,4.6298 -9.0865,0.36769 -11.7674,0.20862 -14.05,-0.83372 z"
       id="path1680"
       inkscape:connector-curvature="0" />
  </g>
  <g
     inkscape:groupmode="layer"
     id="layer5"
     inkscape:label="Logo Rect"
     style="display:inline" />
  <g
     inkscape:groupmode="layer"
     id="layer3"
     inkscape:label="Logo" />
  <g
     inkscape:groupmode="layer"
     id="layer7"
     inkscape:label="Grumpy"
     style="" />
  <g
     inkscape:groupmode="layer"
     id="layer8"
     inkscape:label="Eyes"
     style="display:inline">
    <path
       style="fill:#0892d0;fill-opacity:1;stroke:#0892d0;stroke-width:0.7186411;stroke-opacity:1"
       d="m 797.09764,626.80221 c -6.55116,-0.70098 -10.82133,-1.86699 -14.3829,-3.92738 -5.77695,-3.342 -12.48897,-11.81455 -21.40803,-27.02322 -5.16568,-8.80846 -5.84125,-10.55219 -4.64808,-11.99737 3.45247,-4.18168 24.41966,-8.96179 33.72501,-7.68864 5.83924,0.79893 7.33016,2.83215 12.09746,16.49776 2.1879,6.27168 4.36826,11.53313 4.84524,11.69212 1.43032,0.47677 3.27376,-3.39345 7.76328,-16.29865 3.3195,-9.54196 4.54385,-12.26335 5.51728,-12.26335 4.05524,0 20.62303,7.89569 24.61536,11.73091 4.06423,3.90429 4.63921,7.19208 2.61984,14.98031 -4.33693,16.72651 -13.09011,22.83059 -34.87203,24.31823 -5.56782,0.38026 -10.285,0.65228 -10.48262,0.60447 -0.19763,-0.0478 -2.62304,-0.32914 -5.38981,-0.62519 z"
       id="path833"
       inkscape:connector-curvature="0" />
    <path
       style="fill:#0892d0;fill-opacity:1;stroke:#0892d0;stroke-width:0.7186411;stroke-opacity:1"
       d="m 1041.0763,622.52913 c -7.429,-3.98667 -22.9965,-25.79589 -22.9965,-32.21673 0,-1.78786 0.6567,-2.41925 5.2101,-5.00949 6.4176,-3.65066 18.989,-9.3547 21.9006,-9.93702 2.7995,-0.5599 3.5741,0.53452 10.1925,14.40065 4.8453,10.15141 6.7609,13.3353 8.0231,13.3353 0.3013,0 1.1099,-1.47177 1.7969,-3.27059 1.0943,-2.8654 1.1897,-4.91308 0.7701,-16.52874 -0.4052,-11.21747 -0.3214,-13.25816 0.5447,-13.25816 0.563,0 6.4684,-0.62179 13.1232,-1.38176 6.6547,-0.75996 14.2824,-1.59417 16.9503,-1.8538 l 4.8508,-0.47205 -0.012,4.90803 c -0.072,30.45767 -7.2371,45.14406 -24.4437,50.10599 -4.6454,1.33961 -17.8276,2.5898 -26.9274,2.55376 -4.9197,-0.0195 -7.0698,-0.34868 -8.983,-1.37539 z"
       id="path835"
       inkscape:connector-curvature="0" />
  </g>
</svg>
